#N canvas 693 23 693 832 10;
#X obj 94 28 inlet~;
#X obj 110 355 outlet~;
#X obj 179 14 loadbang;
#X obj 55 74 lop~;
#X obj 212 96 hip~;
#X obj 141 87 bp~;
#X msg 175 53 1600;
#X obj 107 212 +~, f 2;
#X obj 123 235 +~;
#X obj 415 365 vu 15 120 empty compressed 20 -12 1 10 -66577 -1 1 0
;
#X obj 348 365 vu 15 120 empty orig -20 -12 1 10 -66577 -1 1 0;
#N canvas 0 22 390 284 vumeter 0;
#X obj 190 112 env~;
#X obj 190 137 - 100;
#X obj 64 117 env~;
#X obj 64 142 - 100;
#X obj 64 92 r~ \$0-orig~;
#X obj 189 91 r~ \$0-comp~;
#X obj 64 170 outlet;
#X obj 190 163 outlet;
#X connect 0 0 1 0;
#X connect 1 0 7 0;
#X connect 2 0 3 0;
#X connect 3 0 6 0;
#X connect 4 0 2 0;
#X connect 5 0 0 0;
#X restore 353 315 pd vumeter;
#X obj 8 29 s~ \$0-orig~;
#X obj 195 353 s~ \$0-comp~;
#X msg 130 54 80;
#N canvas 145 104 252 208 limiter 0;
#X obj 24 22 inlet~;
#X obj 121 21 loadbang;
#X obj 24 60 z~ 64;
#X obj 24 169 *~;
#X obj 24 200 outlet~;
#X obj 121 113 limiter~ 10;
#X msg 121 85 limit 100;
#X connect 0 0 2 0;
#X connect 0 0 5 0;
#X connect 1 0 6 0;
#X connect 2 0 3 0;
#X connect 3 0 4 0;
#X connect 5 0 3 1;
#X connect 6 0 5 0;
#X restore 140 280 pd limiter;
#N canvas 148 186 450 300 compressor 0;
#X obj 113 89 inlet~;
#X obj 210 88 loadbang;
#X obj 113 127 z~ 64;
#X obj 113 236 *~;
#X obj 113 267 outlet~;
#X msg 331 163 print;
#X text 236 112 set the compressor (limit/treshold/ratio);
#X msg 213 135 compress 100 90 0.5;
#X obj 210 180 limiter~;
#X connect 0 0 2 0;
#X connect 0 0 8 0;
#X connect 1 0 7 0;
#X connect 2 0 3 0;
#X connect 3 0 4 0;
#X connect 5 0 8 0;
#X connect 7 0 8 0;
#X connect 8 0 3 1;
#X restore 247 152 pd compressor;
#N canvas 148 186 450 300 compressor 0;
#X obj 113 89 inlet~;
#X obj 210 88 loadbang;
#X obj 113 127 z~ 64;
#X obj 113 236 *~;
#X obj 113 267 outlet~;
#X msg 331 163 print;
#X text 236 112 set the compressor (limit/treshold/ratio);
#X msg 213 135 compress 100 90 0.5;
#X obj 210 180 limiter~;
#X connect 0 0 2 0;
#X connect 0 0 8 0;
#X connect 1 0 7 0;
#X connect 2 0 3 0;
#X connect 3 0 4 0;
#X connect 5 0 8 0;
#X connect 7 0 8 0;
#X connect 8 0 3 1;
#X restore 145 151 pd compressor;
#N canvas 148 186 450 300 compressor 0;
#X obj 113 89 inlet~;
#X obj 210 88 loadbang;
#X obj 113 127 z~ 64;
#X obj 113 236 *~;
#X obj 113 267 outlet~;
#X msg 331 163 print;
#X text 236 112 set the compressor (limit/treshold/ratio);
#X msg 213 135 compress 100 90 0.5;
#X obj 210 180 limiter~;
#X connect 0 0 2 0;
#X connect 0 0 8 0;
#X connect 1 0 7 0;
#X connect 2 0 3 0;
#X connect 3 0 4 0;
#X connect 5 0 8 0;
#X connect 7 0 8 0;
#X connect 8 0 3 1;
#X restore 46 152 pd compressor;
#X connect 0 0 3 0;
#X connect 0 0 5 0;
#X connect 0 0 4 0;
#X connect 0 0 12 0;
#X connect 2 0 14 0;
#X connect 2 0 6 0;
#X connect 3 0 18 0;
#X connect 4 0 16 0;
#X connect 5 0 17 0;
#X connect 6 0 5 2;
#X connect 6 0 4 1;
#X connect 7 0 8 0;
#X connect 8 0 15 0;
#X connect 11 0 10 0;
#X connect 11 1 9 0;
#X connect 14 0 3 1;
#X connect 14 0 5 1;
#X connect 15 0 1 0;
#X connect 15 0 13 0;
#X connect 16 0 8 1;
#X connect 17 0 7 1;
#X connect 18 0 7 0;
