#N canvas 463 98 713 495 10;
#X obj 94 28 inlet~;
#X obj 110 355 outlet~;
#X obj 179 14 loadbang;
#X obj 55 74 lop~;
#X msg 130 54 98;
#X obj 212 96 hip~;
#X obj 141 87 bp~;
#X msg 175 53 1600;
#X obj 611 60 inlet;
#X msg 538 82 dry \$1;
#X obj 360 148 e_dynproc high;
#X obj 182 142 e_dynproc mid;
#X obj 30 143 e_dynproc low;
#X obj 154 289 e_dynproc limit;
#X msg 235 40 comp1 10 \, comp2 2 \, thresh 100 \, makeup 80;
#X msg 270 264 comp1 10000 \, comp2 1 \, thresh 100 \, makeup 90;
#X connect 0 0 3 0;
#X connect 0 0 6 0;
#X connect 0 0 5 0;
#X connect 2 0 14 0;
#X connect 2 0 4 0;
#X connect 2 0 7 0;
#X connect 2 0 15 0;
#X connect 3 0 12 0;
#X connect 3 0 12 1;
#X connect 4 0 3 1;
#X connect 4 0 6 1;
#X connect 5 0 10 0;
#X connect 5 0 10 1;
#X connect 6 0 11 0;
#X connect 6 0 11 1;
#X connect 7 0 6 2;
#X connect 7 0 5 1;
#X connect 8 0 9 0;
#X connect 9 0 10 2;
#X connect 9 0 11 2;
#X connect 9 0 12 2;
#X connect 9 0 13 2;
#X connect 10 0 13 0;
#X connect 11 0 13 0;
#X connect 12 0 13 0;
#X connect 13 0 1 0;
#X connect 14 0 10 2;
#X connect 14 0 11 2;
#X connect 14 0 12 2;
#X connect 15 0 13 2;
