#N canvas 548 193 713 495 10;
#X obj 94 28 inlet~;
#X obj 110 355 outlet~;
#X obj 179 14 loadbang;
#X obj 55 74 lop~;
#X obj 212 96 hip~;
#X obj 141 87 bp~;
#X msg 175 53 1600;
#X obj 611 60 inlet;
#X msg 538 82 dry \$1;
#X obj 360 148 e_dynproc high;
#X obj 182 142 e_dynproc mid;
#X obj 30 143 e_dynproc low;
#X obj 154 288 e_dynproc limit;
#X msg 236 39 comp1 10 \, comp2 1 \, thresh 100 \, makeup 80;
#X obj 107 212 +~, f 2;
#X obj 123 235 +~;
#X obj 415 365 vu 15 120 empty compressed 20 -12 1 10 -66577 -1 1 0
;
#X obj 348 365 vu 15 120 empty orig -20 -12 1 10 -66577 -1 1 0;
#N canvas 0 22 390 284 vumeter 0;
#X obj 190 112 env~;
#X obj 190 137 - 100;
#X obj 64 117 env~;
#X obj 64 142 - 100;
#X obj 64 92 r~ \$0-orig~;
#X obj 189 91 r~ \$0-comp~;
#X obj 64 170 outlet;
#X obj 190 163 outlet;
#X connect 0 0 1 0;
#X connect 1 0 7 0;
#X connect 2 0 3 0;
#X connect 3 0 6 0;
#X connect 4 0 2 0;
#X connect 5 0 0 0;
#X restore 353 315 pd vumeter;
#X obj 60 282 s~ \$0-orig~;
#X obj 184 351 s~ \$0-comp~;
#X msg 130 54 80;
#X msg 270 264 comp1 1000 \, comp2 1 \, thresh 100 \, makeup 80;
#X connect 0 0 3 0;
#X connect 0 0 5 0;
#X connect 0 0 4 0;
#X connect 2 0 13 0;
#X connect 2 0 21 0;
#X connect 2 0 6 0;
#X connect 2 0 22 0;
#X connect 3 0 11 0;
#X connect 3 0 11 1;
#X connect 4 0 9 0;
#X connect 4 0 9 1;
#X connect 5 0 10 0;
#X connect 5 0 10 1;
#X connect 6 0 5 2;
#X connect 6 0 4 1;
#X connect 7 0 8 0;
#X connect 8 0 9 2;
#X connect 8 0 10 2;
#X connect 8 0 11 2;
#X connect 8 0 12 2;
#X connect 9 0 15 1;
#X connect 10 0 14 1;
#X connect 11 0 14 0;
#X connect 12 0 1 0;
#X connect 12 0 20 0;
#X connect 13 0 9 2;
#X connect 13 0 10 2;
#X connect 13 0 11 2;
#X connect 14 0 15 0;
#X connect 15 0 12 0;
#X connect 15 0 12 1;
#X connect 15 0 19 0;
#X connect 18 0 17 0;
#X connect 18 1 16 0;
#X connect 21 0 3 1;
#X connect 21 0 5 1;
#X connect 22 0 12 2;
