#N canvas 172 36 1385 832 10;
#X text 822 520 Place effects here;
#X floatatom 673 386 5 0 0 1 Delay_time - delaytime, f 5;
#N canvas 543 435 679 326 mixer_effects 0;
#X obj 83 146 throw~ revretL;
#X obj 180 145 throw~ revretR;
#X obj 60 56 catch~ revsendL;
#X obj 170 56 catch~ revsendR;
#X floatatom 267 74 5 0 0 1 Delay_Time delaytime -, f 5;
#X text 151 187 Delay;
#X text 464 188 Reverb;
#X obj 377 148 throw~ rev2retL;
#X obj 516 147 throw~ rev2retR;
#X obj 384 57 catch~ rev2sendL;
#X obj 496 57 catch~ rev2sendR;
#X obj 452 97 pip_reverb;
#X obj 196 119 e_dubdel;
#X msg 268 102 basedur \$1;
#X obj 267 -23 loadbang;
#X msg 267 4 dry 0 \, bq 2 \, basedur 500 \, bpitch 83 \, feedback
0.99 \, dell 2 \, delr 3 \,;
#X connect 2 0 12 0;
#X connect 3 0 12 1;
#X connect 4 0 13 0;
#X connect 9 0 11 0;
#X connect 10 0 11 1;
#X connect 11 0 7 0;
#X connect 11 1 8 0;
#X connect 12 0 0 0;
#X connect 12 1 1 0;
#X connect 13 0 12 2;
#X connect 14 0 15 0;
#X connect 15 0 12 2;
#X restore 821 501 pd mixer_effects;
#X msg 653 409 default;
#X msg 653 478 huge;
#X msg 653 501 huge_noexcursion;
#X msg 653 432 large;
#X msg 653 455 large_noexcursion;
#X obj 653 531 s reverbpresets;
#X obj 649 384 cnv 15 20 20 empty empty empty 20 12 0 14 -4034 -66577
0;
#X text 705 407 Reverb Presets;
#X obj 987 55 vu 78 160 finalVU Main 17 -16 1 20 -66577 -1 0 0;
#N canvas 156 463 450 369 outputs 0;
#X obj 106 207 outlet~;
#X obj 230 210 outlet~;
#X obj 202 75 catch~ sumR;
#X obj 91 74 catch~ sumL;
#N canvas 0 22 450 300 returns 0;
#X obj 77 69 catch~ revretL;
#X obj 229 70 catch~ revretR;
#X obj 133 185 outlet~ L;
#X obj 204 186 outlet~ R;
#X obj 120 108 catch~ rev2retL;
#X obj 253 110 catch~ rev2retR;
#X connect 0 0 2 0;
#X connect 1 0 3 0;
#X connect 4 0 2 0;
#X connect 5 0 3 0;
#X restore 99 98 pd returns;
#X connect 2 0 1 0;
#X connect 3 0 0 0;
#X connect 4 0 0 0;
#X connect 4 1 1 0;
#X restore 367 291 pd outputs;
#X obj 631 550 cnv 15 100 60 empty empty Effect_Settings 20 12 0 20
-262144 -66577 0;
#X obj 19 20 adc~ 1;
#X obj 180 17 adc~ 2;
#X obj 342 21 adc~ 3;
#X obj 508 20 adc~ 4;
#X obj 352 532 dac~;
#X obj 22 240 u_loadmeter;
#X obj 433 513 env~;
#X obj 434 540 - 100;
#X obj 443 573 s finalVU;
#X obj 384 406 hsl 128 15 0 1 0 0 empty empty Compress -2 -8 0 10 -262144
-1 -1 9100 1;
#X obj 297 468 multiband_comp left;
#X obj 442 469 multiband_comp right;
#X obj 299 435 *~;
#X obj 160 379 vsl 15 128 0.5 5 0 1 empty empty gain 0 -9 0 10 -262144
-1 -1 12700 1;
#X obj 212 489 line~;
#X msg 208 464 \$1 20;
#X obj 440 447 *~;
#X text 310 377 comment;
#X obj 20 56 pip_channel 1;
#X obj 180 56 pip_channel 2;
#X obj 340 57 pip_channel 3;
#X obj 502 58 pip_channel 4;
#X obj 159 348 loadbang;
#X obj 58 569 loadbang;
#X msg 59 606 \; pd dsp 1;
#X obj 667 13 adc~ 5;
#X obj 816 20 adc~ 6;
#X obj 658 56 pip_channel 5;
#X obj 817 55 pip_channel 6;
#N canvas 295 22 1001 742 midi_in 0;
#X obj 157 249 + 1;
#X obj 193 471 s;
#X msg 160 286 symbol vol_\$1;
#X obj 52 316 scale 0 127 0 1;
#X msg 259 287 symbol lp_\$1;
#X msg 346 287 symbol dropit;
#X obj 206 7 ctlin;
#X obj 159 211 moses 6;
#X obj 252 258 - 5;
#X obj 201 57 pack 1 2 3;
#X obj 234 107 route 13 15;
#X obj 235 82 list-rot 2;
#X obj 636 278 + 1;
#X obj 638 240 moses 6;
#X msg 764 313 symbol dropit;
#X obj 235 224 moses 12;
#X obj 719 241 moses 19;
#X msg 639 315 symbol sendvol_\$1;
#X obj 890 279 - 19;
#X msg 866 316 symbol send2vol_\$1;
#X obj 810 241 moses 26;
#X obj 498 290 scale 0 127 0 1;
#X obj 210 187 unpack f f;
#X obj 621 193 unpack f f;
#X connect 0 0 2 0;
#X connect 2 0 1 1;
#X connect 3 0 1 0;
#X connect 4 0 1 1;
#X connect 5 0 1 1;
#X connect 6 0 9 0;
#X connect 6 1 9 1;
#X connect 6 2 9 2;
#X connect 7 0 0 0;
#X connect 7 1 15 0;
#X connect 8 0 4 0;
#X connect 9 0 11 0;
#X connect 10 0 23 0;
#X connect 10 1 22 0;
#X connect 11 0 10 0;
#X connect 12 0 17 0;
#X connect 13 0 12 0;
#X connect 13 1 16 0;
#X connect 14 0 1 1;
#X connect 15 0 8 0;
#X connect 15 1 5 0;
#X connect 16 0 14 0;
#X connect 16 1 20 0;
#X connect 17 0 1 1;
#X connect 18 0 19 0;
#X connect 19 0 1 1;
#X connect 20 0 18 0;
#X connect 20 1 14 0;
#X connect 21 0 1 0;
#X connect 22 0 3 0;
#X connect 22 1 7 0;
#X connect 23 0 21 0;
#X connect 23 1 13 0;
#X restore 816 735 pd midi_in;
#X connect 3 0 8 0;
#X connect 4 0 8 0;
#X connect 5 0 8 0;
#X connect 6 0 8 0;
#X connect 7 0 8 0;
#X connect 12 0 26 1;
#X connect 12 1 30 0;
#X connect 14 0 32 0;
#X connect 15 0 33 0;
#X connect 16 0 34 0;
#X connect 17 0 35 0;
#X connect 20 0 21 0;
#X connect 21 0 22 0;
#X connect 23 0 25 1;
#X connect 23 0 24 1;
#X connect 24 0 18 0;
#X connect 24 0 20 0;
#X connect 25 0 18 1;
#X connect 26 0 24 0;
#X connect 27 0 29 0;
#X connect 28 0 26 0;
#X connect 28 0 30 1;
#X connect 29 0 28 0;
#X connect 30 0 25 0;
#X connect 36 0 27 0;
#X connect 37 0 38 0;
#X connect 39 0 41 0;
#X connect 40 0 42 0;
