#N canvas 220 23 1386 832 10;
#X text 822 520 Place effects here;
#X floatatom 673 386 14 0 0 1 Delay_time - delaytime, f 14;
#N canvas 543 435 679 326 mixer_effects 0;
#X obj 67 146 throw~ revretL;
#X obj 163 145 throw~ revretR;
#X obj 30 56 catch~ revsendL;
#X obj 142 56 catch~ revsendR;
#X floatatom 238 71 5 0 0 1 Delay_Time delaytime -, f 5;
#X text 151 187 Delay;
#X text 464 188 Reverb;
#X obj 377 148 throw~ rev2retL;
#X obj 516 147 throw~ rev2retR;
#X obj 384 57 catch~ rev2sendL;
#X obj 496 57 catch~ rev2sendR;
#X obj 452 97 pip_reverb;
#X obj 140 108 e_dubdel;
#X msg 234 96 basedur \$1;
#X obj 267 -23 loadbang;
#X msg 267 4 dry 0 \, bq 2 \, basedur 500 \, bpitch 83 \, feedback
0.99 \, dell 2 \, delr 3 \,;
#X floatatom 316 67 5 0 1 0 - del_feedback -, f 5;
#X msg 311 95 feedback \$1;
#X connect 2 0 12 0;
#X connect 3 0 12 1;
#X connect 4 0 13 0;
#X connect 9 0 11 0;
#X connect 10 0 11 1;
#X connect 11 0 7 0;
#X connect 11 1 8 0;
#X connect 12 0 0 0;
#X connect 12 1 1 0;
#X connect 13 0 12 2;
#X connect 14 0 15 0;
#X connect 15 0 12 2;
#X connect 16 0 17 0;
#X connect 17 0 12 2;
#X restore 821 501 pd mixer_effects;
#X msg 653 409 default;
#X msg 653 478 huge;
#X msg 653 501 huge_noexcursion;
#X msg 653 432 large;
#X msg 653 455 large_noexcursion;
#X obj 653 531 s reverbpresets;
#X obj 649 384 cnv 15 20 20 empty empty empty 20 12 0 14 -4034 -66577
0;
#X text 705 407 Reverb Presets;
#X obj 987 55 vu 78 160 finalVU Main 17 -16 1 20 -66577 -1 0 0;
#N canvas 366 317 450 392 outputs 0;
#X obj 106 207 outlet~;
#X obj 230 210 outlet~;
#X obj 202 75 catch~ sumR;
#X obj 91 74 catch~ sumL;
#N canvas 0 22 450 300 returns 0;
#X obj 77 69 catch~ revretL;
#X obj 229 70 catch~ revretR;
#X obj 133 185 outlet~ L;
#X obj 204 186 outlet~ R;
#X obj 120 108 catch~ rev2retL;
#X obj 253 110 catch~ rev2retR;
#X connect 0 0 2 0;
#X connect 1 0 3 0;
#X connect 4 0 2 0;
#X connect 5 0 3 0;
#X restore 99 98 pd returns;
#X connect 2 0 1 0;
#X connect 3 0 0 0;
#X connect 4 0 0 0;
#X connect 4 1 1 0;
#X restore 367 291 pd outputs;
#X obj 631 550 cnv 15 100 60 empty empty Effect_Settings 20 12 0 20
-262144 -66577 0;
#X obj 19 20 adc~ 1;
#X obj 180 17 adc~ 2;
#X obj 342 21 adc~ 3;
#X obj 508 20 adc~ 4;
#X obj 352 532 dac~;
#X obj 22 240 u_loadmeter;
#X obj 434 540 - 100;
#X obj 443 573 s finalVU;
#X obj 297 468 multiband_comp left;
#X obj 442 469 multiband_comp right;
#X obj 299 435 *~;
#X obj 160 379 vsl 15 128 0.5 5 0 1 empty empty gain 0 -9 0 10 -262144
-1 -1 1500 1;
#X obj 212 489 line~;
#X msg 208 464 \$1 20;
#X obj 440 447 *~;
#X text 310 377 comment;
#X obj 20 56 pip_channel 1;
#X obj 180 56 pip_channel 2;
#X obj 340 57 pip_channel 3;
#X obj 502 58 pip_channel 4;
#X obj 159 348 loadbang;
#X obj 58 569 loadbang;
#X msg 59 606 \; pd dsp 1;
#X obj 667 13 adc~ 5;
#X obj 816 20 adc~ 6;
#X obj 658 56 pip_channel 5;
#X obj 817 55 pip_channel 6;
#N canvas 295 22 1001 742 midi_in 0;
#X obj 157 249 + 1;
#X obj 193 471 s;
#X msg 160 286 symbol vol_\$1;
#X obj 52 316 scale 0 127 0 1;
#X msg 259 287 symbol lp_\$1;
#X msg 346 287 symbol dropit;
#X obj 206 7 ctlin;
#X obj 159 211 moses 6;
#X obj 252 258 - 5;
#X obj 201 57 pack 1 2 3;
#X obj 234 107 route 13 15;
#X obj 235 82 list-rot 2;
#X obj 636 278 + 1;
#X obj 638 240 moses 6;
#X msg 764 313 symbol dropit;
#X obj 235 224 moses 12;
#X obj 719 241 moses 19;
#X msg 639 315 symbol sendvol_\$1;
#X obj 890 279 - 19;
#X msg 866 316 symbol send2vol_\$1;
#X obj 810 241 moses 26;
#X obj 498 290 scale 0 127 0 1;
#X obj 210 187 unpack f f;
#X obj 621 193 unpack f f;
#X connect 0 0 2 0;
#X connect 2 0 1 1;
#X connect 3 0 1 0;
#X connect 4 0 1 1;
#X connect 5 0 1 1;
#X connect 6 0 9 0;
#X connect 6 1 9 1;
#X connect 6 2 9 2;
#X connect 7 0 0 0;
#X connect 7 1 15 0;
#X connect 8 0 4 0;
#X connect 9 0 11 0;
#X connect 10 0 23 0;
#X connect 10 1 22 0;
#X connect 11 0 10 0;
#X connect 12 0 17 0;
#X connect 13 0 12 0;
#X connect 13 1 16 0;
#X connect 14 0 1 1;
#X connect 15 0 8 0;
#X connect 15 1 5 0;
#X connect 16 0 14 0;
#X connect 16 1 20 0;
#X connect 17 0 1 1;
#X connect 18 0 19 0;
#X connect 19 0 1 1;
#X connect 20 0 18 0;
#X connect 20 1 14 0;
#X connect 21 0 1 0;
#X connect 22 0 3 0;
#X connect 22 1 7 0;
#X connect 23 0 21 0;
#X connect 23 1 13 0;
#X restore 816 735 pd midi_in;
#X floatatom 1117 58 9 60 300 0 BPM - bpm, f 9;
#X obj 654 274 r bpm;
#X floatatom 789 279 5 0 0 0 Delay - -, f 5;
#X obj 697 289 bang;
#X obj 655 313 expr (60000 / max(1 \, $f1)) * max(1 \, $f2);
#X obj 584 281 vsl 15 128 0 1 0 1 del_feedback empty feedback 0 -9
0 10 -262144 -1 -1 5500 1;
#X obj 674 360 line;
#X msg 659 336 \$1 100;
#X obj 433 513 env~ 4096;
#X obj 335 630 tgl 15 0 empty empty empty 17 7 0 10 -262144 -1 -1 0
1;
#X obj 342 600 >= 1;
#X obj 378 602 print;
#X obj 350 569 dbtorms;
#N canvas 245 77 1099 736 looper 0;
#X obj 98 78 tgl 25 0 empty empty empty 17 7 0 25 -262144 -1 -1 0 1
;
#X obj 446 288 *;
#X obj 494 284 samplerate~;
#X obj 446 264 t f b;
#X obj 116 217 r~ main_out;
#X obj 468 398 r loop_on_off;
#X text 91 50 Record;
#N canvas 330 257 450 300 into_blocks 0;
#X obj 173 101 % 64;
#X obj 146 81 t f f;
#X obj 146 121 -;
#X obj 146 59 int;
#X obj 146 17 inlet;
#X obj 146 167 outlet;
#X text 238 67 to be a multiple of the block size.;
#X text 238 49 Force the length of the tables;
#X text 134 261 Pierre Massat \, Guitar extended \, 2013;
#X connect 0 0 2 1;
#X connect 1 0 2 0;
#X connect 1 1 0 0;
#X connect 2 0 5 0;
#X connect 3 0 1 0;
#X connect 4 0 3 0;
#X restore 446 310 pd into_blocks;
#X obj 446 335 s new_length;
#X obj 835 267 r new_length;
#X obj 547 554 spigot;
#X obj 468 458 sel 1 0;
#X msg 468 491 bang;
#X msg 502 490 stop;
#X obj 466 570 s~ main_out;
#X obj 835 337 r empty_table;
#X obj 763 127 t f f;
#X obj 763 171 s loop_on_off;
#X obj 468 438 t f f;
#X obj 567 533 s stop_looping;
#X obj 114 351 r stop_looping;
#X obj 547 583 s new_cycle;
#X obj 133 372 r new_cycle;
#X obj 46 393 tabwrite~ bande;
#X obj 466 532 tabplay~ bande;
#X obj 835 409 table bande;
#X obj 593 105 bng 15 250 50 0 empty empty empty 17 7 0 10 -262144
-1 -1;
#X obj 593 181 s empty_table;
#X text 434 61 Tempo;
#X obj 468 418 tgl 15 0 empty empty empty 17 7 0 10 -262144 -1 -1 1
1;
#X text 686 659 Pierre Massat \, Guitar Extended \, 2013;
#X text 550 478 Here we play the table (loop) continuously.;
#X text 30 427 This is where the recording happens.;
#X text 298 183 assume that there are 4;
#X text 298 195 beats in a bar)...;
#X text 276 255 ...and compute the length;
#X text 276 269 of the table in samples \, as;
#X text 277 296 block size.;
#X text 277 284 a multiple of the;
#X msg 437 398 1;
#X obj 593 125 t b b;
#X obj 593 148 del 2;
#X text 734 58 Audio On/Off;
#X text 583 61 Clear;
#X obj 437 374 r new_length;
#X obj 49 603 soundfiler;
#X obj 49 563 savepanel;
#X obj 49 545 bng 15 250 50 0 empty empty empty 17 7 0 10 -262144 -1
-1;
#X msg 49 583 write -wave \$1.wav bande;
#X text 15 507 And if you really happy with your loop \,;
#X text 15 521 save it as a .wav file !;
#N canvas 145 104 252 208 limiter 0;
#X obj 24 22 inlet~;
#X msg 121 85 limit 100;
#X obj 121 21 loadbang;
#X obj 24 60 z~ 64;
#X obj 24 169 *~;
#X obj 24 200 outlet~;
#X obj 121 113 limiter~ 10;
#X connect 0 0 3 0;
#X connect 0 0 6 0;
#X connect 1 0 6 0;
#X connect 2 0 1 0;
#X connect 3 0 4 0;
#X connect 4 0 5 0;
#X connect 6 0 4 1;
#X restore 353 573 pd limiter;
#X obj 790 152 switch~;
#N canvas 175 136 691 422 reverse 0;
#X obj 120 109 bng 15 250 50 0 empty empty Reverse_me 18 7 0 8 -262144
-1 -1;
#X obj 120 200 until;
#X obj 186 228 + 1;
#X obj 154 228 f;
#X obj 145 176 s \$1-length;
#X obj 323 335 table tempArray;
#X obj 120 152 t f f f;
#X obj 244 196 s tempArray;
#X msg 244 172 resize \$1;
#X obj 75 308 tabwrite tempArray;
#X obj 520 51 sel;
#X obj 596 41 - 1;
#X obj 596 17 r \$1-length;
#X obj 154 254 t f f f;
#X obj 67 278 s \$1-eof;
#X obj 520 18 r \$1-eof;
#X obj 520 123 until;
#X obj 520 98 f;
#X obj 520 156 f;
#X obj 552 156 - 1;
#X obj 571 103 r \$1-length;
#X obj 539 74 r \$1-length;
#X obj 520 208 tabread tempArray;
#X obj 584 255 f;
#X obj 603 231 r \$1-length;
#X obj 584 304 mod;
#X obj 603 279 r \$1-length;
#X obj 614 255 + 1;
#X obj 520 181 t f b;
#X obj 571 126 - 1;
#X text 53 335 Copies array to a temporary location.;
#X msg 337 124 0;
#X obj 337 148 s clr2;
#X obj 463 110 r clr2;
#X obj 173 200 r clr2;
#X obj 120 128 arraysize bande;
#X obj 179 281 tabread bande;
#X obj 520 335 tabwrite bande;
#X obj 120 42 inlet;
#X obj 471 368 sel 0;
#X text 515 377 Bang when done copying;
#X obj 471 390 outlet;
#X text 206 396 (Taken and adapted from Pd's help);
#X connect 0 0 31 0;
#X connect 0 0 35 0;
#X connect 1 0 3 0;
#X connect 2 0 3 1;
#X connect 3 0 2 0;
#X connect 3 0 13 0;
#X connect 6 0 1 0;
#X connect 6 1 4 0;
#X connect 6 2 8 0;
#X connect 8 0 7 0;
#X connect 10 0 17 0;
#X connect 11 0 10 1;
#X connect 12 0 11 0;
#X connect 13 0 14 0;
#X connect 13 1 36 0;
#X connect 13 2 9 1;
#X connect 15 0 10 0;
#X connect 16 0 18 0;
#X connect 17 0 16 0;
#X connect 18 0 19 0;
#X connect 18 0 28 0;
#X connect 19 0 18 1;
#X connect 20 0 29 0;
#X connect 21 0 17 1;
#X connect 22 0 37 0;
#X connect 23 0 25 0;
#X connect 23 0 27 0;
#X connect 24 0 23 1;
#X connect 25 0 37 1;
#X connect 26 0 25 1;
#X connect 27 0 23 1;
#X connect 28 0 22 0;
#X connect 28 0 39 0;
#X connect 28 1 23 0;
#X connect 29 0 18 1;
#X connect 31 0 32 0;
#X connect 33 0 18 1;
#X connect 34 0 3 1;
#X connect 35 0 6 0;
#X connect 36 0 9 0;
#X connect 38 0 0 0;
#X connect 39 0 41 0;
#X restore 881 565 pd reverse;
#X obj 881 502 bng 15 250 50 0 empty empty empty 17 7 0 10 -262144
-1 -1;
#X msg 835 359 \; bande const 0 \;;
#X msg 835 287 \; bande resize \$1 \;;
#X obj 881 523 t b b;
#X obj 354 553 *~;
#X obj 369 532 line~;
#X obj 369 512 pack 0 5;
#X msg 911 589 0;
#X obj 881 543 del 5;
#X msg 881 589 1;
#X obj 353 463 r~ main_out;
#X obj 881 617 s vol-output;
#X obj 369 491 r vol-output;
#X text 864 479 Reverse it !!!;
#X obj 739 193 s vol-output;
#X obj 48 219 inlet~;
#X obj 448 149 r bpm;
#X text 298 170 ... x it by 4 (we;
#X obj 352 625 outlet~;
#X obj 455 180 / 60;
#X obj 86 263 mux~;
#X msg 595 419 0 \$1;
#X obj 456 207 expr 16 / $f1;
#X connect 0 0 74 0;
#X connect 0 0 16 0;
#X connect 1 0 7 0;
#X connect 2 0 1 1;
#X connect 3 0 1 0;
#X connect 3 1 2 0;
#X connect 4 0 74 1;
#X connect 5 0 29 0;
#X connect 7 0 8 0;
#X connect 9 0 56 0;
#X connect 10 0 21 0;
#X connect 10 0 24 0;
#X connect 11 0 12 0;
#X connect 11 1 13 0;
#X connect 12 0 21 0;
#X connect 12 0 24 0;
#X connect 13 0 19 0;
#X connect 13 0 24 0;
#X connect 15 0 55 0;
#X connect 16 0 17 0;
#X connect 16 0 68 0;
#X connect 16 1 52 0;
#X connect 18 0 11 0;
#X connect 18 1 10 1;
#X connect 20 0 23 0;
#X connect 22 0 23 0;
#X connect 24 0 14 0;
#X connect 24 1 10 0;
#X connect 26 0 40 0;
#X connect 29 0 18 0;
#X connect 39 0 29 0;
#X connect 40 0 41 0;
#X connect 40 1 27 0;
#X connect 41 0 27 0;
#X connect 44 0 39 0;
#X connect 46 0 48 0;
#X connect 47 0 46 0;
#X connect 48 0 45 0;
#X connect 51 0 72 0;
#X connect 53 0 63 0;
#X connect 54 0 57 0;
#X connect 57 0 62 0;
#X connect 57 1 61 0;
#X connect 58 0 51 0;
#X connect 59 0 58 1;
#X connect 60 0 59 0;
#X connect 61 0 65 0;
#X connect 62 0 53 0;
#X connect 63 0 65 0;
#X connect 64 0 58 0;
#X connect 66 0 60 0;
#X connect 69 0 74 0;
#X connect 70 0 73 0;
#X connect 73 0 76 0;
#X connect 74 0 23 0;
#X connect 76 0 3 0;
#X restore 462 316 pd looper;
#X obj 1117 12 loadbang;
#X msg 1116 37 130, f 6;
#X obj 787 223 loadbang;
#X msg 788 251 8, f 6;
#X obj 99 8 osc~ 440;
#X obj 173 545 print gain;
#X connect 3 0 8 0;
#X connect 4 0 8 0;
#X connect 5 0 8 0;
#X connect 6 0 8 0;
#X connect 7 0 8 0;
#X connect 12 0 24 1;
#X connect 12 1 28 0;
#X connect 14 0 30 0;
#X connect 15 0 31 0;
#X connect 16 0 32 0;
#X connect 17 0 33 0;
#X connect 20 0 21 0;
#X connect 22 0 18 0;
#X connect 22 0 50 0;
#X connect 23 0 18 1;
#X connect 24 0 22 0;
#X connect 25 0 27 0;
#X connect 25 0 61 0;
#X connect 26 0 24 0;
#X connect 26 0 28 1;
#X connect 27 0 26 0;
#X connect 28 0 23 0;
#X connect 34 0 25 0;
#X connect 35 0 36 0;
#X connect 37 0 39 0;
#X connect 38 0 40 0;
#X connect 43 0 46 0;
#X connect 44 0 46 1;
#X connect 44 0 45 0;
#X connect 45 0 46 0;
#X connect 46 0 49 0;
#X connect 48 0 1 0;
#X connect 49 0 48 0;
#X connect 50 0 20 0;
#X connect 50 0 54 0;
#X connect 52 0 51 0;
#X connect 54 0 52 0;
#X connect 56 0 57 0;
#X connect 57 0 42 0;
#X connect 58 0 59 0;
#X connect 59 0 44 0;
