#N canvas 668 499 450 269 10;
#X obj 167 91 noise~;
#X obj 152 156 dac~ 1 2 3 4;
#X obj 299 23 loadbang;
#X msg 308 74 \; pd dsp 1;
#X obj 48 73 midiin;
#X obj 51 132 print;
#X connect 0 0 1 0;
#X connect 0 0 1 1;
#X connect 0 0 1 2;
#X connect 0 0 1 3;
#X connect 2 0 3 0;
#X connect 4 0 5 0;
